<svg xmlns="http://www.w3.org/2000/svg" viewBox="0 0 32 32">
  <rect width="32" height="32" rx="6" fill="#5b8af5"/>
  <g transform="translate(16,16)">
    <!-- Gear -->
    <path d="M-2.5,-11 L2.5,-11 L3,-9 L5,-7.8 L7,-9 L8.5,-7.5 L7.2,-5.5 L8,-3.2 L10.5,-2.5 L10.5,0 L10.5,2.5 L8,3.2 L7.2,5.5 L8.5,7.5 L7,9 L5,7.8 L3,9 L2.5,11 L-2.5,11 L-3,9 L-5,7.8 L-7,9 L-8.5,7.5 L-7.2,5.5 L-8,3.2 L-10.5,2.5 L-10.5,0 L-10.5,-2.5 L-8,-3.2 L-7.2,-5.5 L-8.5,-7.5 L-7,-9 L-5,-7.8 L-3,-9 Z"
      fill="none" stroke="white" stroke-width="1.6" stroke-linejoin="round"/>
    <circle cx="0" cy="0" r="4.2" fill="none" stroke="white" stroke-width="1.6"/>
    <!-- AI cross nodes -->
    <circle cx="0" cy="0" r="1.2" fill="white"/>
    <circle cx="0" cy="-2.8" r="0.7" fill="white"/>
    <line x1="0" y1="-1.2" x2="0" y2="-2.1" stroke="white" stroke-width="0.6"/>
    <circle cx="0" cy="2.8" r="0.7" fill="white"/>
    <line x1="0" y1="1.2" x2="0" y2="2.1" stroke="white" stroke-width="0.6"/>
    <circle cx="-2.6" cy="0" r="0.7" fill="white"/>
    <line x1="-1.2" y1="0" x2="-1.9" y2="0" stroke="white" stroke-width="0.6"/>
    <circle cx="2.6" cy="0" r="0.7" fill="white"/>
    <line x1="1.2" y1="0" x2="1.9" y2="0" stroke="white" stroke-width="0.6"/>
  </g>
</svg>
